<?xml version="1.0" encoding="utf-8"?>
<!-- Generator: Adobe Illustrator 27.2.0, SVG Export Plug-In . SVG Version: 6.00 Build 0)  -->
<svg version="1.1" id="Layer_1" xmlns="http://www.w3.org/2000/svg" xmlns:xlink="http://www.w3.org/1999/xlink" x="0px" y="0px"
	 viewBox="0 0 58.07 61.95" style="enable-background:new 0 0 58.07 61.95;" xml:space="preserve">
<style type="text/css">
	.st0{fill:#050606;}
</style>
<g>
	<path class="st0" d="M22.98,27.4v-4.66c4.95-1.61,8.5-5.93,8.5-11.03C31.48,5.24,25.77,0,18.73,0C11.95,0,6.09,5.76,5.98,11.71
		c-0.09,4.74,3.48,8.05,4.05,8.56c0.27,0.24,1.91,1.59,4.45,2.44v5.49L1.1,23.44L0,26.52l14.48,5.16v11.96v1.31v17h4.58v-17h0.65v17
		h3.27v-17V30.62l18.16-4.91l-0.81-3L22.98,27.4z"/>
	<circle class="st0" cx="52.22" cy="7.75" r="5.85"/>
</g>
</svg>
