<?xml version="1.0" encoding="utf-8"?>
<!-- Generator: Adobe Illustrator 27.2.0, SVG Export Plug-In . SVG Version: 6.00 Build 0)  -->
<svg version="1.1" id="Layer_1" xmlns="http://www.w3.org/2000/svg" xmlns:xlink="http://www.w3.org/1999/xlink" x="0px" y="0px"
	 viewBox="0 0 105.56 65.53" style="enable-background:new 0 0 105.56 65.53;" xml:space="preserve">
<style type="text/css">
	.st0{fill:#100F0F;stroke:#000000;stroke-miterlimit:10;}
</style>
<path class="st0" d="M103.72,52.56L82.78,40.21h14.47l-14.47-9.39h10.47l-10.47-6.55h5.76l-11.59-8.42l-9.09,6.61l-10.59-6.87h10.47
	L57.26,9.04h5.76L51.42,0.62L39.83,9.04h5.76l-10.47,6.55h10.47l-9.16,5.94l-7.82-5.68l-11.59,8.42h5.76L12.3,30.82h10.47
	L8.31,40.21h14.47L1.83,52.56h19.92h2.89v12.47h7.93V52.56h2.89h14.69h5.23h14.69h4.15v11.23h7.93V52.56h1.64H103.72z M69.24,32.04
	l-2.06-1.21h3.93L69.24,32.04z M71.11,24.28l-0.23,0.15l-0.22-0.15H71.11z M69.99,24.98l-6.18,3.86l-6.55-3.86H69.99z M47.46,37.32
	v1.94l-2.99-1.94h0.09H47.46z M34.45,30.82h1.22l-0.64,0.38L34.45,30.82z M40.43,28.02l-4.86-3.04h10.02L40.43,28.02z M34.45,40.21
	h13.01v7.67L34.45,40.21z M50.71,49.79h4.14l-2.07,1.22L50.71,49.79z M55.39,49.48V37.32h2.89h2.8l-4.45,2.89h14.47L55.39,49.48z"/>
</svg>
